# xmcd
#
# Track frame offsets:
#	150
#	13076
#	24548
#	35658
#	49184
#	65047
#	80483
#	95747
#	106293
#	119446
#	135376
#	148157
#	169798
#	183132
#	196238
#	209967
#	221404
#	241667
#	261015
#	281531
#
# Disc length: 3904 seconds
#
# Revision: 0
# Processed by: cddbd v1.5.2PL0 Copyright (c) Steve Scherf et al.
# Submitted via: EasyCDDAExtractor 12.0.1.1
#
DISCID=2b0f3e14
DTITLE=Willie Nelson - Songs
DYEAR=2005
DGENRE=Country
TTITLE0=Crazy
TTITLE1=Touch Me
TTITLE2=Good Times
TTITLE3=Yesterday's Wine
TTITLE4=Whiskey River
TTITLE5=Stay A Little Longer
TTITLE6=It's Not Supposed To Be That Way
TTITLE7=Blue Eyes Crying In The Rain
TTITLE8=Good Hearted Woman
TTITLE9=Always On My Mind
TTITLE10=Just To Satisfy You
TTITLE11=Pancho And Lefty
TTITLE12=She Is Gone
TTITLE13=My Own Peculiar Way
TTITLE14=Funny How Time Slips Away
TTITLE15=Night Life
TTITLE16=Rainbow Connection
TTITLE17=Don't Fade Away
TTITLE18=Mendocino County Line
TTITLE19=On The Road Again
EXTD=
EXTT0=
EXTT1=
EXTT2=
EXTT3=
EXTT4=
EXTT5=
EXTT6=
EXTT7=
EXTT8=
EXTT9=
EXTT10=
EXTT11=
EXTT12=
EXTT13=
EXTT14=
EXTT15=
EXTT16=
EXTT17=
EXTT18=
EXTT19=
PLAYORDER=
